<svg width="34" height="35" viewBox="0 0 34 35" fill="none" xmlns="http://www.w3.org/2000/svg">
<g clip-path="url(#clip0_464_30)">
<path d="M23.5432 0C23.6223 0 23.7015 0 23.7851 0C23.9792 2.46827 23.064 4.31256 21.9517 5.64814C20.8603 6.97449 19.3658 8.26088 16.9487 8.06569C16.7874 5.63277 17.7041 3.92526 18.8149 2.59276C19.8451 1.35094 21.7337 0.245905 23.5432 0Z" fill="black"/>
<path d="M30.8603 25.691C30.8603 25.7156 30.8603 25.7371 30.8603 25.7601C30.181 27.878 29.2121 29.6931 28.0296 31.3775C26.9502 32.9067 25.6274 34.9647 23.2655 34.9647C21.2245 34.9647 19.8689 33.6137 17.7772 33.5768C15.5646 33.54 14.3478 34.7065 12.3248 35C12.0934 35 11.8619 35 11.635 35C10.1495 34.7787 8.95061 33.5676 8.0772 32.4764C5.50178 29.252 3.51162 25.087 3.14136 19.757C3.14136 19.2344 3.14136 18.7134 3.14136 18.1909C3.29812 14.3763 5.09868 11.2748 7.49195 9.77168C8.75502 8.97248 10.4914 8.29163 12.4248 8.59594C13.2534 8.72812 14.0999 9.02013 14.842 9.30907C15.5452 9.58725 16.4245 10.0806 17.2576 10.0545C17.822 10.0376 18.3834 9.73479 18.9522 9.52116C20.6184 8.90179 22.2517 8.19173 24.4046 8.52524C26.992 8.92791 28.8284 10.1113 29.963 11.9372C27.7743 13.3711 26.0439 15.532 26.3395 19.2221C26.6023 22.5741 28.4954 24.5352 30.8603 25.691Z" fill="black"/>
</g>
<defs>
<clipPath id="clip0_464_30">
<rect width="34" height="35" fill="white"/>
</clipPath>
</defs>
</svg>
