<svg width="30" height="30" viewBox="0 0 30 30" fill="none" xmlns="http://www.w3.org/2000/svg">
<g opacity="0.2" clip-path="url(#clip0_957_150)">
<rect width="30" height="30" fill="white"/>
<path d="M27.3587 7.46013C27.3034 7.38608 27.2342 7.32364 27.1548 7.27638C27.0754 7.22912 26.9875 7.19796 26.8961 7.18468C26.8047 7.1714 26.7115 7.17627 26.622 7.199C26.5325 7.22173 26.4483 7.26189 26.3743 7.31716L15.0329 15.7828C14.9923 15.8132 14.943 15.8297 14.8923 15.8297C14.8415 15.8297 14.7922 15.8132 14.7516 15.7828L3.63289 7.27966C3.55948 7.22365 3.47576 7.18264 3.3865 7.15897C3.29725 7.13531 3.2042 7.12946 3.11269 7.14176C3.02117 7.15406 2.93297 7.18426 2.85313 7.23064C2.77328 7.27702 2.70336 7.33868 2.64734 7.41208C2.59132 7.48549 2.55031 7.56921 2.52665 7.65847C2.50299 7.74772 2.49714 7.84077 2.50944 7.93228C2.52173 8.0238 2.55193 8.112 2.59832 8.19184C2.6447 8.27169 2.70635 8.34162 2.77976 8.39763L11.5219 15.0844L2.87585 21.6C2.80137 21.6555 2.73856 21.7252 2.691 21.805C2.64345 21.8849 2.61208 21.9733 2.5987 22.0652C2.58532 22.1572 2.59017 22.2509 2.613 22.341C2.63582 22.431 2.67616 22.5157 2.73171 22.5902C2.78727 22.6647 2.85695 22.7275 2.93678 22.7751C3.01661 22.8226 3.10503 22.854 3.19698 22.8674C3.28893 22.8808 3.38262 22.8759 3.47269 22.8531C3.56277 22.8302 3.64746 22.7899 3.72195 22.7344L12.6821 15.9703L13.8962 16.9078C14.1793 17.1245 14.5252 17.2431 14.8817 17.2456C15.2382 17.2481 15.5858 17.1345 15.8719 16.9219L17.1469 15.9703L26.2126 22.7344C26.2866 22.7896 26.3708 22.8297 26.4603 22.8524C26.5498 22.8752 26.643 22.88 26.7344 22.8667C26.8258 22.8535 26.9137 22.8223 26.993 22.7751C27.0724 22.7278 27.1417 22.6654 27.1969 22.5914C27.2522 22.5174 27.2923 22.4332 27.315 22.3437C27.3378 22.2541 27.3426 22.161 27.3293 22.0696C27.3161 21.9782 27.2849 21.8903 27.2377 21.8109C27.1904 21.7315 27.128 21.6623 27.054 21.607L18.3212 15.082L27.2157 8.43748C27.3632 8.32607 27.4609 8.16105 27.4877 7.97814C27.5145 7.79522 27.4681 7.60912 27.3587 7.46013Z" fill="black"/>
<path d="M26.4844 4.45312H3.51562C2.58322 4.45312 1.68901 4.82352 1.0297 5.48283C0.370395 6.14214 0 7.03635 0 7.96875L0 22.0312C0 22.9637 0.370395 23.8579 1.0297 24.5172C1.68901 25.1765 2.58322 25.5469 3.51562 25.5469H26.4844C27.4168 25.5469 28.311 25.1765 28.9703 24.5172C29.6296 23.8579 30 22.9637 30 22.0312V7.96875C30 7.03635 29.6296 6.14214 28.9703 5.48283C28.311 4.82352 27.4168 4.45312 26.4844 4.45312ZM28.5938 22.0312C28.5938 22.5907 28.3715 23.1272 27.9759 23.5228C27.5803 23.9184 27.0438 24.1406 26.4844 24.1406H3.51562C2.95618 24.1406 2.41966 23.9184 2.02407 23.5228C1.62849 23.1272 1.40625 22.5907 1.40625 22.0312V7.96875C1.40625 7.40931 1.62849 6.87278 2.02407 6.4772C2.41966 6.08161 2.95618 5.85938 3.51562 5.85938H26.4844C27.0438 5.85938 27.5803 6.08161 27.9759 6.4772C28.3715 6.87278 28.5938 7.40931 28.5938 7.96875V22.0312Z" fill="black"/>
</g>
<defs>
<clipPath id="clip0_957_150">
<rect width="30" height="30" fill="white"/>
</clipPath>
</defs>
</svg>
