<svg width="25" height="26" viewBox="0 0 25 26" fill="none" xmlns="http://www.w3.org/2000/svg">
<path d="M22.3214 0.331055H2.67857C1.96817 0.331055 1.28686 0.613261 0.784535 1.11559C0.282206 1.61792 0 2.29922 0 3.00963L0 22.6525C0 23.3629 0.282206 24.0442 0.784535 24.5465C1.28686 25.0488 1.96817 25.3311 2.67857 25.3311H10.3376V16.8316H6.82199V12.8311H10.3376V9.78195C10.3376 6.31376 12.4023 4.39802 15.5647 4.39802C17.0792 4.39802 18.6629 4.66811 18.6629 4.66811V8.07213H16.918C15.1987 8.07213 14.6624 9.13909 14.6624 10.2334V12.8311H18.5006L17.8867 16.8316H14.6624V25.3311H22.3214C23.0318 25.3311 23.7131 25.0488 24.2155 24.5465C24.7178 24.0442 25 23.3629 25 22.6525V3.00963C25 2.29922 24.7178 1.61792 24.2155 1.11559C23.7131 0.613261 23.0318 0.331055 22.3214 0.331055Z" fill="white"/>
</svg>
