<svg width="25" height="26" viewBox="0 0 25 26" fill="none" xmlns="http://www.w3.org/2000/svg">
<path d="M12.5028 6.42137C8.95566 6.42137 6.09453 9.28314 6.09453 12.8311C6.09453 16.379 8.95566 19.2407 12.5028 19.2407C16.0499 19.2407 18.911 16.379 18.911 12.8311C18.911 9.28314 16.0499 6.42137 12.5028 6.42137ZM12.5028 16.9982C10.2105 16.9982 8.33659 15.1294 8.33659 12.8311C8.33659 10.5327 10.205 8.66392 12.5028 8.66392C14.8006 8.66392 16.669 10.5327 16.669 12.8311C16.669 15.1294 14.795 16.9982 12.5028 16.9982ZM20.6679 6.15918C20.6679 6.99038 19.9986 7.65422 19.1732 7.65422C18.3422 7.65422 17.6785 6.9848 17.6785 6.15918C17.6785 5.33357 18.3477 4.66415 19.1732 4.66415C19.9986 4.66415 20.6679 5.33357 20.6679 6.15918ZM24.9122 7.67653C24.8173 5.67385 24.36 3.89989 22.8932 2.43833C21.432 0.976765 19.6584 0.519329 17.6562 0.418916C15.5926 0.301768 9.40742 0.301768 7.34384 0.418916C5.34718 0.51375 3.57362 0.971186 2.1068 2.43275C0.639989 3.89432 0.188232 5.66827 0.0878416 7.67095C-0.0292805 9.73499 -0.0292805 15.9215 0.0878416 17.9856C0.182655 19.9883 0.639989 21.7622 2.1068 23.2238C3.57362 24.6853 5.34161 25.1428 7.34384 25.2432C9.40742 25.3603 15.5926 25.3603 17.6562 25.2432C19.6584 25.1484 21.432 24.6909 22.8932 23.2238C24.3544 21.7622 24.8118 19.9883 24.9122 17.9856C25.0293 15.9215 25.0293 9.74057 24.9122 7.67653ZM22.2462 20.2002C21.8112 21.2936 20.969 22.136 19.8703 22.5767C18.225 23.2294 14.321 23.0787 12.5028 23.0787C10.6846 23.0787 6.77496 23.2238 5.13525 22.5767C4.04211 22.1416 3.19994 21.2992 2.75934 20.2002C2.1068 18.5546 2.25739 14.6496 2.25739 12.8311C2.25739 11.0125 2.11238 7.10195 2.75934 5.46187C3.19437 4.36849 4.03653 3.52613 5.13525 3.08543C6.78054 2.43275 10.6846 2.58337 12.5028 2.58337C14.321 2.58337 18.2306 2.43833 19.8703 3.08543C20.9635 3.52056 21.8056 4.36291 22.2462 5.46187C22.8988 7.10752 22.7482 11.0125 22.7482 12.8311C22.7482 14.6496 22.8988 18.5602 22.2462 20.2002Z" fill="white"/>
</svg>
