<svg width="25" height="26" viewBox="0 0 25 26" fill="none" xmlns="http://www.w3.org/2000/svg">
<path d="M23.2143 0.331055H1.78013C0.797991 0.331055 0 1.14021 0 2.13351V23.5286C0 24.5219 0.797991 25.3311 1.78013 25.3311H23.2143C24.1964 25.3311 25 24.5219 25 23.5286V2.13351C25 1.14021 24.1964 0.331055 23.2143 0.331055ZM7.5558 21.7596H3.85045V9.82882H7.56138V21.7596H7.5558ZM5.70313 8.19936C4.51451 8.19936 3.55469 7.23396 3.55469 6.05092C3.55469 4.86789 4.51451 3.90248 5.70313 3.90248C6.88616 3.90248 7.85156 4.86789 7.85156 6.05092C7.85156 7.23954 6.89174 8.19936 5.70313 8.19936ZM21.4453 21.7596H17.74V15.9561C17.74 14.5721 17.7121 12.792 15.8147 12.792C13.8839 12.792 13.5882 14.2987 13.5882 15.8556V21.7596H9.88281V9.82882H13.4375V11.4583H13.4877C13.9844 10.5208 15.1953 9.53306 16.9978 9.53306C20.7478 9.53306 21.4453 12.0052 21.4453 15.2194V21.7596Z" fill="white"/>
</svg>
