<svg width="163" height="68" viewBox="0 0 163 68" fill="none" xmlns="http://www.w3.org/2000/svg">
<path d="M21.3071 63.4927C20.2026 63.4927 19.3071 62.5973 19.3071 61.4927V2C19.3071 0.895431 20.2026 0 21.3071 0H32.9176C34.0221 0 34.9176 0.89543 34.9176 2V47.7135C34.9176 48.818 35.813 49.7135 36.9176 49.7135H59.5572C60.6617 49.7135 61.5572 50.6089 61.5572 51.7135V61.4927C61.5572 62.5973 60.6617 63.4927 59.5572 63.4927H21.3071Z" fill="white"/>
<path d="M73.7505 63.4927C72.6459 63.4927 71.7505 62.5973 71.7505 61.4927V15.5091C71.7505 14.4045 70.855 13.5091 69.7505 13.5091H54.7464C53.6419 13.5091 52.7464 12.6137 52.7464 11.5091V2C52.7464 0.89543 53.6419 0 54.7464 0H104.365C105.47 0 106.365 0.895431 106.365 2V11.5091C106.365 12.6137 105.47 13.5091 104.365 13.5091H89.3609C88.2563 13.5091 87.3609 14.4045 87.3609 15.5091V61.4927C87.3609 62.5973 86.4655 63.4927 85.3609 63.4927H73.7505Z" fill="white"/>
<path d="M114.266 63.4927C113.161 63.4927 112.266 62.5973 112.266 61.4927V2C112.266 0.895431 113.161 0 114.266 0H141.111C147.559 0 152.536 1.47099 156.043 4.41297C159.606 7.35495 161.388 11.3476 161.388 16.391C161.388 20.1135 160.37 23.2957 158.334 25.9375C156.494 28.3931 154.018 30.1225 150.907 31.1255C150.549 31.2412 150.189 30.9681 150.189 30.5914C150.189 30.2331 150.516 29.9634 150.866 30.0424C153.34 30.6018 155.433 31.5151 157.146 32.7821C159.012 34.163 160.455 35.9342 161.473 38.0956C162.491 40.1971 163 42.6587 163 45.4806C163 49.1431 162.151 52.3252 160.455 55.027C158.758 57.7288 156.326 59.8303 153.158 61.3313C150.048 62.7722 146.315 63.4927 141.96 63.4927H114.266ZM128.634 48.2524C128.119 49.6886 129.074 51.3345 130.6 51.3345H139.839C141.026 51.3345 142.073 51.2445 142.978 51.0644C143.883 50.8842 144.646 50.6141 145.268 50.2538C145.891 49.8936 146.428 49.4433 146.88 48.9029C147.333 48.3025 147.644 47.6421 147.814 46.9216C148.04 46.141 148.153 45.2705 148.153 44.3098C148.153 43.4092 148.04 42.5987 147.814 41.8782C147.644 41.0977 147.333 40.4372 146.88 39.8968C146.428 39.2964 145.891 38.8161 145.268 38.4559C144.646 38.0956 143.883 37.8255 142.978 37.6453C142.073 37.4652 141.026 37.3751 139.839 37.3751H130.355C128.888 37.3751 127.937 38.8995 128.445 40.2762C129.471 43.0538 129.675 45.3502 128.634 48.2524ZM129.009 21.8838C128.45 23.3941 129.39 25.217 131 25.217H138.312C141.14 25.217 143.204 24.6766 144.505 23.5959C145.862 22.5152 146.541 20.864 146.541 18.6425C146.541 16.4211 145.862 14.8 144.505 13.7793C143.204 12.6985 141.14 12.1582 138.312 12.1582H130.558C129.042 12.1582 128.094 13.7762 128.665 15.1807C129.652 17.6088 129.852 19.6067 129.009 21.8838Z" fill="white"/>
<path d="M33.3342 48.8671L8.33282 65.4263L8.34513 32.287L33.3342 48.8671Z" fill="#FF8200"/>
</svg>
