<svg width="26" height="30" viewBox="0 0 26 30" fill="none" xmlns="http://www.w3.org/2000/svg">
<path d="M7.73711 12.1282H4.96987C4.23596 12.1282 3.5321 12.4315 3.01314 12.9712C2.49418 13.511 2.20264 14.2431 2.20264 15.0065V25.0805C2.20264 25.8439 2.49418 26.576 3.01314 27.1158C3.5321 27.6556 4.23596 27.9588 4.96987 27.9588H21.5733C22.3072 27.9588 23.0111 27.6556 23.53 27.1158C24.049 26.576 24.3405 25.8439 24.3405 25.0805V15.0065C24.3405 14.2431 24.049 13.511 23.53 12.9712C23.0111 12.4315 22.3072 12.1282 21.5733 12.1282H18.8061M7.73711 12.1282V7.81078C7.73711 6.28404 8.3202 4.81983 9.35812 3.74026C10.396 2.66069 11.8037 2.0542 13.2716 2.0542C14.7394 2.0542 16.1471 2.66069 17.185 3.74026C18.223 4.81983 18.8061 6.28404 18.8061 7.81078V12.1282M7.73711 12.1282H18.8061M13.2716 17.8848V22.2022" stroke="#656565" stroke-opacity="0.6" stroke-width="2.91667" stroke-linecap="round" stroke-linejoin="round"/>
</svg>
