<svg width="25" height="26" viewBox="0 0 25 26" fill="none" xmlns="http://www.w3.org/2000/svg">
<path d="M22.3214 0.331055H2.67857C1.19978 0.331055 0 1.53083 0 3.00963V22.6525C0 24.1313 1.19978 25.3311 2.67857 25.3311H22.3214C23.8002 25.3311 25 24.1313 25 22.6525V3.00963C25 1.53083 23.8002 0.331055 22.3214 0.331055ZM19.5926 9.19266C19.6038 9.34891 19.6038 9.51074 19.6038 9.66699C19.6038 14.5052 15.9208 20.0799 9.19085 20.0799C7.11496 20.0799 5.18973 19.4773 3.57143 18.4393C3.86719 18.4728 4.15179 18.484 4.45312 18.484C6.16629 18.484 7.73996 17.9036 8.99554 16.9215C7.38839 16.888 6.03795 15.8333 5.57478 14.3824C6.13839 14.4661 6.64621 14.4661 7.22656 14.3154C5.55246 13.975 4.29688 12.5018 4.29688 10.7217V10.677C4.78237 10.9505 5.35156 11.1179 5.94866 11.1402C5.44667 10.8063 5.03515 10.3533 4.75082 9.82165C4.46649 9.29 4.31821 8.69623 4.3192 8.09333C4.3192 7.41253 4.49777 6.78753 4.81585 6.24623C6.6183 8.46722 9.32478 9.91811 12.3605 10.0744C11.8415 7.5911 13.6998 5.57659 15.9319 5.57659C16.9866 5.57659 17.9353 6.01744 18.6049 6.73172C19.4308 6.57547 20.2232 6.26855 20.9263 5.85003C20.6529 6.69824 20.0781 7.41253 19.3192 7.86454C20.0558 7.78641 20.7701 7.57994 21.4286 7.29534C20.9319 8.02637 20.3069 8.67369 19.5926 9.19266Z" fill="white"/>
</svg>
